<?xml version="1.0" encoding="UTF-8"?>
<svg id="Layer_1" xmlns="http://www.w3.org/2000/svg" version="1.1" viewBox="0 0 64 64">
  <!-- Generator: Adobe Illustrator 29.5.1, SVG Export Plug-In . SVG Version: 2.1.0 Build 141)  -->
  <defs>
    <style>
      .st0 {
        fill: none;
        stroke: #001d3d;
        stroke-linecap: round;
        stroke-linejoin: round;
        stroke-width: 2px;
      }
    </style>
  </defs>
  <line class="st0" x1="41.1" y1="44.5" x2="22.9" y2="44.5"/>
  <polyline class="st0" points="11.1 44.5 6 44.5 6 38.5 58 38.5 58 44.5 52.9 44.5"/>
  <polygon class="st0" points="58 38.5 35 38.5 35 16.5 46.5 16.5 58 27.5 58 38.5"/>
  <polygon class="st0" points="49.7 30.5 39.3 30.5 39.3 20.5 44.5 20.5 49.7 25.5 49.7 30.5"/>
  <polygon class="st0" points="32 38.5 8 38.5 8 20.5 20 10.5 32 20.5 32 38.5"/>
  <rect class="st0" x="11" y="25.5" width="8" height="13"/>
  <rect class="st0" x="22" y="25.5" width="6" height="6"/>
  <g>
    <circle class="st0" cx="17" cy="47" r="6.4"/>
    <circle class="st0" cx="17" cy="47" r="2.8"/>
  </g>
  <g>
    <circle class="st0" cx="47" cy="47" r="6.4"/>
    <circle class="st0" cx="47" cy="47" r="2.8"/>
  </g>
  <line class="st0" x1="39.3" y1="34" x2="41.3" y2="34"/>
</svg>